<svg width="77" height="83" viewBox="0 0 77 83" fill="none" xmlns="http://www.w3.org/2000/svg">
<path fill-rule="evenodd" clip-rule="evenodd" d="M61.124 31.2834L71.1014 24.026L61.0159 21.3281L61.124 31.2899V31.2834ZM61.3722 62.4362L71.3686 59.1635L61.0541 51.6578L61.3722 62.4362ZM57.8025 19.8191C55.8045 17.6373 48.016 10.6347 33.2536 14.2666C15.4242 18.6564 4.26329 44.9948 20.6419 61.097C37.5551 77.7219 55.9317 65.232 58.2034 63.5793L57.9234 54.0486C54.061 59.7122 47.6597 63.416 40.4185 63.416C28.634 63.416 19.0639 53.5914 19.0639 41.4935C19.0639 29.3956 28.6276 19.5709 40.4185 19.5709C47.6406 19.5709 54.0292 23.2617 57.8979 28.8991L57.8025 19.8126V19.8191ZM71.7186 20.799C65.0883 10.2623 53.5456 3.27924 40.4248 3.27924C19.8784 3.27924 3.19428 20.4071 3.19428 41.5C3.19428 62.5929 19.8784 79.7208 40.4248 79.7208C53.3865 79.7208 64.8083 72.9075 71.4768 62.5799L59.9151 66.3621C56.6444 68.6876 36.7661 81.4976 18.4339 63.4748C0.108173 45.4586 12.5671 15.9912 32.5091 11.0854C49.2314 6.97001 58.0061 15.155 60.2905 17.7419L71.7186 20.8055V20.799ZM76.3637 60.5026L77 59.2353L58.2606 45.6088L57.5607 47.6665C55.0791 54.924 48.3405 60.1368 40.4248 60.1368C30.4029 60.1368 22.2709 51.7819 22.2709 41.5C22.2709 31.2181 30.4093 22.8632 40.4248 22.8632C48.3405 22.8632 55.0791 28.076 57.5607 35.3335L58.2606 37.3846L77 23.7581L76.3637 22.4909C69.6442 9.13222 56.0654 0 40.4248 0C18.1158 0 0 18.5976 0 41.5C0 64.4024 18.1158 83 40.4248 83C56.0654 83 69.6442 73.8613 76.3637 60.5091V60.5026Z" fill="#0059E7"/>
</svg>
